<svg xmlns="http://www.w3.org/2000/svg" viewBox="0 0 216.958 216.958"><defs><marker orient="auto" id="b" overflow="visible"><path d="M1.154 0l-1.73 1v-2z" fill-rule="evenodd" stroke="#000" stroke-width=".2666"/></marker><marker orient="auto" id="a" overflow="visible"><path d="M1.154 0l-1.73 1v-2z" fill-rule="evenodd" stroke="#000" stroke-width=".2666"/></marker></defs><g transform="translate(20.795 -11.86)"><path d="M56.696 84.577h21.167v42.334H56.696z" fill="none"/><path d="M56.696 84.577H99.03v42.334H56.696zM99.03 84.577h42.333v42.334H99.03z" fill="none"/><path d="M90.714 124.643a11.717 29.482 0 0 1-9.971 29.153A11.717 29.482 0 0 1 67.8 133.33l11.197-8.687z" fill="none"/><path d="M88.305 148.99a31.75 31.75 0 0 1 21.12-39.598 31.75 31.75 0 0 1 39.62 21.078 31.75 31.75 0 0 1-21.037 39.642 31.75 31.75 0 0 1-39.664-20.994" fill="#66f"/><path d="M32.365 76.418a31.75 31.75 0 0 1 21.12-39.597 31.75 31.75 0 0 1 39.619 21.078A31.75 31.75 0 0 1 72.068 97.54a31.75 31.75 0 0 1-39.664-20.995" fill="#f99"/><path d="M155.726 121.619c14.616-17.64 29.23-35.278 20.915-46.113-8.315-10.835-39.561-14.867-70.808-18.899" fill="none" stroke="#000" stroke-width="8.149" stroke-linecap="round" marker-end="url(#a)"/><path d="M24.092 77.774C9.477 95.413-5.138 113.052 3.177 123.887c8.315 10.835 39.562 14.867 70.808 18.899" fill="none" stroke="#000" stroke-width="8.149" stroke-linecap="round" marker-end="url(#b)"/><flowRoot xml:space="preserve" style="line-height:1.25" transform="scale(.26458)" font-style="normal" font-weight="400" font-size="40" font-family="sans-serif" letter-spacing="0" word-spacing="0" fill="#000" fill-opacity="1" stroke="none"><flowRegion><path d="M-831.429-34.623h77.143V96.806h-77.143z"/></flowRegion><flowPara/></flowRoot><flowRoot xml:space="preserve" style="line-height:1.25" transform="scale(.26458)" font-style="normal" font-weight="400" font-size="40" font-family="sans-serif" letter-spacing="0" word-spacing="0" fill="#000" fill-opacity="1" stroke="none"><flowRegion><path d="M-882.857-186.052H-360v625.714h-522.857z"/></flowRegion><flowPara/></flowRoot><g aria-label="‹k›a‹c›" style="line-height:1.25" font-weight="400" font-size="50.8" font-family="IBM Plex Mono" letter-spacing="0" word-spacing="0" stroke-width=".265"><path d="M1.663 196.034L-8.7 187.296v-4.572l10.363-8.788 1.473 3.251-7.315 7.823 7.315 7.773zM18 161.134h4.725v23.267h.254l4.37-4.268 8.127-7.62h5.639l-10.719 10.262 11.989 15.951h-5.791l-9.703-13.208-4.166 3.81v9.398h-4.724zM53.49 192.783l7.315-7.773-7.315-7.823 1.473-3.251 10.364 8.788v4.572l-10.364 8.738zM99.038 198.726q-2.337 0-3.454-1.168-1.067-1.22-1.321-3.15h-.254q-.864 2.286-2.794 3.607-1.93 1.32-5.131 1.32-4.064 0-6.502-2.082-2.388-2.134-2.388-5.842 0-3.76 2.743-5.74 2.743-1.982 8.636-1.982h5.334v-2.336q0-2.794-1.524-4.166-1.524-1.422-4.42-1.422-2.59 0-4.267 1.016-1.625.965-2.641 2.743l-2.997-2.388q.508-1.016 1.422-1.93.914-.965 2.184-1.677 1.27-.762 2.947-1.168 1.676-.457 3.708-.457 4.775 0 7.519 2.387 2.794 2.337 2.794 6.655v13.869h3.505v3.911zm-11.836-3.099q2.946 0 4.826-1.32 1.88-1.321 1.88-3.302v-4.064h-5.284q-3.353 0-4.978.965-1.575.965-1.575 2.794v1.067q0 1.93 1.371 2.895 1.372.965 3.76.965zM123.504 196.034l-10.363-8.738v-4.572l10.363-8.788 1.473 3.251-7.315 7.823 7.315 7.773zM151.12 199.336q-2.897 0-5.183-.965-2.235-.966-3.81-2.744-1.524-1.828-2.387-4.318-.813-2.54-.813-5.69 0-3.098.813-5.638.863-2.54 2.387-4.318 1.575-1.829 3.81-2.794 2.286-.965 5.131-.965 3.912 0 6.3 1.676 2.438 1.677 3.606 4.42l-3.708 2.032q-.711-1.93-2.286-3.048-1.524-1.118-3.912-1.118-3.403 0-5.283 2.134-1.829 2.083-1.829 5.385v4.47q0 3.302 1.83 5.436 1.879 2.082 5.384 2.082 2.54 0 4.165-1.168 1.626-1.22 2.642-3.251l3.404 2.235q-1.169 2.692-3.709 4.42-2.54 1.727-6.553 1.727zM175.33 192.783l7.316-7.773-7.315-7.823 1.473-3.251 10.363 8.788v4.572l-10.363 8.738z" style="-inkscape-font-specification:'IBM Plex Mono'"/></g><path d="M92.699 146.282a28.466 28.107 0 0 1 18.935-35.053 28.466 28.107 0 0 1 35.521 18.66 28.466 28.107 0 0 1-18.86 35.092 28.466 28.107 0 0 1-35.56-18.585" fill="#00f"/><path d="M88.305 148.99a31.75 31.75 0 0 1 21.12-39.598 31.75 31.75 0 0 1 39.62 21.078 31.75 31.75 0 0 1-21.037 39.642 31.75 31.75 0 0 1-39.664-20.994" fill="#99f"/><path d="M92.699 146.282a28.466 28.107 0 0 1 18.935-35.053 28.466 28.107 0 0 1 35.521 18.66 28.466 28.107 0 0 1-18.86 35.092 28.466 28.107 0 0 1-35.56-18.585" fill="#00f"/><path d="M37.494 73.711a27.983 28.107 0 0 1 18.614-35.053 27.983 28.107 0 0 1 34.919 18.659 27.983 28.107 0 0 1-18.54 35.093 27.983 28.107 0 0 1-34.959-18.585" fill="red"/></g></svg>